<?xml version="1.0" standalone="no"?>
<!DOCTYPE svg PUBLIC "-//W3C//DTD SVG 20010904//EN"
 "http://www.w3.org/TR/2001/REC-SVG-20010904/DTD/svg10.dtd">
<svg version="1.0" xmlns="http://www.w3.org/2000/svg"
 width="324.000000pt" height="534.000000pt" viewBox="0 0 324.000000 534.000000"
 preserveAspectRatio="xMidYMid meet">

<g transform="translate(0.000000,534.000000) scale(0.100000,-0.100000)"
fill="#000000" stroke="none">
<path d="M0 2670 l0 -2670 1620 0 1620 0 0 2670 0 2670 -1620 0 -1620 0 0
-2670z m2089 2019 c53 -18 117 -88 135 -150 17 -56 21 -129 8 -129 -5 0 -29 7
-54 15 l-45 16 9 50 c10 54 3 82 -7 33 -16 -74 -61 -179 -103 -241 -101 -150
-113 -170 -144 -243 -28 -66 -32 -89 -36 -191 -4 -105 -6 -116 -22 -112 -64
17 -140 134 -140 216 0 86 38 152 191 335 96 115 154 213 163 277 l6 40 -23
-50 c-24 -48 -25 -49 -32 -23 -7 28 5 59 38 96 31 33 1 27 -34 -7 -16 -16 -29
-39 -29 -50 0 -12 -4 -21 -10 -21 -5 0 -10 13 -10 29 0 17 5 33 10 36 15 9 12
25 -4 19 -8 -3 -20 -19 -26 -35 -7 -16 -16 -26 -21 -23 -16 9 -10 32 17 64
l26 31 -27 -13 c-15 -7 -34 -26 -41 -43 -10 -25 -14 -27 -19 -12 -10 25 0 44
37 67 18 11 27 20 20 20 -23 0 -71 -30 -82 -50 -6 -11 -16 -18 -21 -14 -6 4
-4 15 5 30 13 18 13 22 2 18 -7 -3 -19 -17 -25 -31 -13 -29 -36 -19 -25 11 22
57 189 75 313 35z m-276 -93 c15 -4 27 -11 27 -16 0 -6 9 -10 19 -10 11 0 23
-5 26 -10 4 -6 24 -18 46 -27 82 -32 75 -54 -68 -225 -163 -195 -203 -265
-203 -353 0 -56 16 -100 55 -156 33 -46 33 -47 15 -74 -22 -33 -44 -201 -38
-283 3 -40 19 -91 56 -172 51 -117 138 -368 129 -376 -9 -9 -81 26 -121 58
l-39 32 18 -32 c11 -17 17 -33 14 -35 -2 -2 -58 -15 -124 -29 -66 -13 -126
-27 -134 -29 -10 -3 -21 16 -37 60 -24 65 -60 120 -103 157 l-25 22 62 31 c34
17 69 31 79 31 27 0 120 -46 165 -81 53 -43 58 -31 7 16 -59 53 -133 84 -254
105 -58 10 -131 30 -163 44 -32 15 -48 19 -37 10 30 -24 137 -74 160 -74 50
-1 45 -17 -16 -53 l-62 -37 -51 54 c-28 29 -66 61 -84 70 -18 9 -32 18 -32 20
0 4 119 96 124 96 3 0 6 -8 8 -17 3 -11 10 0 17 27 44 152 93 288 170 472 38
90 41 105 41 187 0 63 4 92 14 100 7 6 64 28 127 49 99 32 116 42 136 71 29
43 29 49 -3 63 -57 26 -93 157 -60 220 25 48 80 108 96 104 8 -2 27 -7 43 -10z
m-169 -227 c16 -48 16 -52 -6 -117 -12 -37 -26 -70 -32 -74 -5 -3 -40 -16 -77
-28 -37 -11 -73 -28 -81 -37 -8 -11 -13 -47 -14 -107 -1 -110 -9 -142 -30
-125 -8 6 -20 33 -28 60 -25 84 8 174 122 324 54 71 123 155 127 155 1 0 10
-23 19 -51z m555 21 c91 -35 136 -61 120 -70 -49 -27 -209 -34 -224 -10 -6 10
33 100 43 100 4 0 31 -9 61 -20z m38 -124 c2 -2 6 -46 18 -195 4 -40 13 -107
21 -148 24 -125 13 -200 -32 -229 -33 -22 -37 -15 -19 29 14 35 22 117 9 104
-3 -3 -10 -25 -15 -48 -18 -79 -53 -91 -44 -16 5 41 5 42 -8 14 l-14 -29 -15
24 c-11 18 -14 45 -10 118 2 52 -1 106 -7 120 -8 20 -10 10 -11 -55 -1 -44 -5
-91 -10 -105 l-7 -25 -12 28 c-6 16 -11 61 -11 100 -1 105 -13 147 -53 181
l-34 30 41 57 41 58 85 -6 c47 -3 86 -6 87 -7z m-209 -183 c7 -15 16 -100 22
-188 14 -224 18 -246 57 -368 19 -60 33 -110 31 -113 -2 -2 -30 -6 -61 -10
-55 -7 -57 -6 -67 21 -6 15 -17 93 -24 174 -20 209 -75 459 -76 346 0 -39 -13
-65 -33 -65 -22 0 30 174 71 237 13 21 16 21 42 8 15 -8 32 -27 38 -42z m-628
-249 c0 -6 -17 -51 -39 -100 -21 -49 -58 -149 -82 -223 l-44 -134 -87 -69
c-88 -70 -174 -157 -248 -253 -47 -61 -130 -217 -130 -244 0 -28 75 -133 140
-196 59 -56 60 -57 42 -80 -9 -13 -19 -21 -22 -20 -11 7 -28 -10 -69 -70 -23
-33 -45 -60 -49 -60 -15 0 -32 -17 -32 -30 0 -11 8 -13 33 -8 17 3 35 10 38
16 10 14 20 -8 13 -27 -3 -9 -12 -16 -19 -16 -7 0 -27 -22 -45 -50 -18 -28
-36 -50 -41 -50 -6 0 -6 7 0 18 5 10 9 33 9 51 -1 47 -29 36 -48 -19 -11 -33
-22 -46 -38 -48 -20 -3 -22 0 -16 25 3 15 14 39 23 52 44 65 51 77 46 89 -3 7
6 34 19 60 13 26 27 58 31 71 6 21 5 23 -23 16 -18 -3 -33 -2 -37 4 -10 16
-63 13 -91 -5 -14 -10 -31 -32 -39 -50 -8 -19 -19 -34 -24 -34 -14 0 -14 4 4
48 13 29 13 41 4 58 -9 18 -8 27 9 50 11 16 23 45 26 64 4 22 25 55 56 90 28
30 50 65 50 77 0 32 -10 53 -26 53 -21 0 -17 9 27 75 22 33 42 71 46 85 3 14
21 43 40 66 31 39 42 64 26 64 -20 0 -132 -136 -235 -286 -340 -495 -567 -914
-495 -914 38 0 318 197 459 323 44 40 99 88 122 107 39 33 40 34 23 7 -10 -15
-50 -88 -88 -162 -85 -162 -115 -269 -128 -456 l-9 -129 -111 -228 c-64 -132
-119 -259 -131 -305 -22 -78 -23 -142 -5 -142 6 0 44 38 84 84 74 83 74 83 88
168 14 89 73 282 124 405 75 183 450 855 470 842 14 -8 11 -68 -6 -109 -21
-50 -34 -121 -24 -136 6 -10 13 -9 32 4 78 51 151 164 140 218 -3 15 2 57 12
94 13 52 14 69 4 81 -15 19 -5 26 131 97 131 68 227 102 353 126 53 10 97 17
97 16 0 -1 -34 -23 -75 -49 -52 -33 -83 -46 -97 -43 -16 5 -42 -10 -102 -57
-45 -35 -92 -75 -105 -90 l-24 -25 24 -10 c23 -9 123 -113 215 -224 l46 -56
-1 -278 0 -278 35 -63 35 -64 -16 -91 c-9 -51 -21 -123 -26 -162 -9 -62 -56
-219 -81 -268 -15 -30 -38 -21 -38 16 -1 52 -11 210 -15 232 -3 15 -20 25 -66
38 l-62 18 7 297 c3 163 9 346 12 405 l7 109 -49 49 c-27 27 -49 56 -49 64 0
14 -90 95 -105 95 -14 0 -40 -31 -40 -47 0 -8 -23 -42 -52 -75 l-51 -59 57
-58 56 -57 -5 -104 c-3 -58 -8 -140 -10 -182 -3 -42 -2 -79 2 -81 5 -3 5 -65
0 -139 -10 -169 -5 -246 33 -493 35 -224 58 -335 69 -335 4 0 13 -24 20 -53
27 -123 29 -126 69 -133 20 -4 56 -20 79 -35 l41 -29 66 83 c36 45 66 89 66
97 0 8 32 51 70 95 l70 80 -3 91 c-4 99 -2 110 70 364 50 177 67 225 83 235 7
5 8 -15 3 -62 -4 -37 -8 -97 -7 -133 3 -279 5 -330 13 -330 5 0 49 25 98 54
l88 55 39 116 39 115 -38 74 c-36 72 -37 77 -32 153 18 275 31 413 38 401 4
-8 33 -100 64 -204 71 -241 95 -380 95 -551 l0 -132 56 -105 c31 -58 60 -108
65 -112 27 -16 39 136 18 238 -6 29 -31 123 -55 208 -68 238 -73 270 -57 359
14 77 12 382 -2 426 -7 21 41 -26 165 -162 189 -208 477 -392 619 -397 38 -1
47 3 58 24 27 49 -12 257 -84 450 -95 253 -375 780 -416 780 -7 0 -21 15 -32
33 -46 80 -66 107 -74 102 -5 -3 -1 -22 9 -43 56 -116 69 -153 60 -175 -4 -12
-11 -31 -15 -42 -5 -16 -8 -17 -15 -5 -6 8 -10 29 -10 45 0 55 -37 152 -77
206 -22 30 -46 64 -52 77 -18 34 -31 17 -19 -25 7 -26 6 -53 -2 -94 -14 -63
-8 -128 16 -185 8 -20 12 -48 9 -63 -4 -18 4 -45 25 -88 25 -50 29 -66 21 -82
-7 -13 -8 -46 -3 -97 6 -57 5 -85 -4 -102 l-12 -24 -16 29 c-11 22 -12 33 -4
41 6 6 8 25 4 46 -6 30 -11 36 -31 36 -22 0 -25 -4 -25 -35 0 -33 -2 -35 -20
-25 -14 8 -20 21 -20 47 0 24 -10 51 -26 75 -15 21 -35 66 -44 100 -20 73 -35
84 -43 32 -5 -28 -1 -46 13 -70 11 -17 20 -46 20 -65 0 -18 8 -42 19 -53 21
-23 38 -86 24 -86 -22 0 -60 57 -83 123 -20 57 -30 72 -49 77 -32 7 -55 70
-39 105 9 20 6 32 -17 71 -16 26 -52 102 -81 168 -29 66 -58 122 -65 125 -7 2
-9 -4 -6 -15 20 -67 28 -108 23 -119 -2 -7 9 -46 25 -87 81 -196 120 -319 108
-334 -12 -14 -3 -54 12 -54 5 0 9 -14 9 -31 0 -28 -3 -31 -24 -25 -26 6 -42
-14 -24 -32 12 -12 7 -64 -8 -69 -18 -6 -44 102 -34 137 10 36 -5 90 -25 90
-8 0 -15 -12 -17 -26 -2 -18 -26 33 -80 166 -62 155 -75 195 -66 210 13 20
-46 205 -131 407 -27 65 -51 136 -54 157 -13 95 24 296 53 296 4 0 24 -7 43
-15 67 -28 71 -24 64 58 -6 66 -5 74 14 85 12 8 23 11 26 9 13 -13 34 -143 43
-260 12 -160 19 -189 77 -295 52 -96 111 -263 120 -339 6 -58 10 -62 28 -36
11 15 14 12 24 -20 22 -66 51 -40 51 46 0 23 -10 56 -24 80 -18 32 -27 68 -36
152 -14 140 -33 231 -71 346 -26 79 -56 245 -46 255 8 9 336 -471 541 -793 28
-43 74 -116 104 -161 127 -197 304 -538 367 -706 82 -221 119 -415 93 -491
-12 -36 -17 -40 -51 -43 -54 -5 -138 22 -244 78 -169 89 -317 210 -482 395
l-62 70 6 -41 c11 -72 9 -287 -3 -329 -24 -80 -14 -140 63 -405 48 -163 58
-227 53 -325 -4 -68 -9 -90 -24 -105 -27 -26 -43 -12 -89 80 -21 41 -47 88
-58 104 -19 27 -20 42 -18 168 1 76 -1 138 -6 138 -11 0 -37 -42 -127 -200
l-76 -136 0 -109 0 -109 -54 -81 c-30 -44 -76 -107 -103 -140 -46 -56 -52 -60
-100 -66 -44 -6 -57 -13 -85 -45 -18 -22 -51 -59 -74 -83 l-40 -43 -35 17
c-19 10 -68 39 -109 66 -41 26 -96 58 -123 70 -41 20 -49 29 -61 69 -27 90
-56 217 -79 340 l-23 125 -41 19 c-45 20 -63 52 -147 263 l-45 111 -6 164
c-11 321 -16 413 -26 424 -5 7 -3 56 6 130 8 65 15 126 15 134 0 31 -249 -412
-345 -613 -70 -148 -150 -389 -164 -497 -8 -64 -17 -90 -34 -110 -13 -14 -43
-46 -67 -72 -23 -26 -49 -57 -57 -68 -21 -29 -61 -26 -69 6 -19 74 24 209 133
421 111 218 133 276 133 358 0 161 45 333 127 484 l47 85 -69 -59 c-108 -93
-232 -187 -325 -247 -110 -71 -124 -78 -154 -78 -23 0 -26 4 -26 33 0 97 153
386 409 772 73 111 260 368 347 477 54 68 114 143 133 168 62 78 226 267 322
370 83 91 93 98 105 82 7 -9 14 -22 14 -28z m698 -520 c-9 -9 -21 -13 -27 -10
-20 13 -11 26 16 26 25 0 26 -1 11 -16z m62 -12 c0 -4 -11 -23 -25 -42 -20
-28 -25 -30 -31 -16 -4 11 2 26 16 42 24 24 40 31 40 16z m20 -70 c0 -39 -22
-69 -37 -50 -8 10 -8 21 2 46 17 39 35 42 35 4z m-1068 -72 c26 -17 58 -47 73
-66 l28 -36 -21 -20 c-24 -25 -32 -20 -111 64 -45 49 -52 60 -41 73 17 20 20
20 72 -15z m-22 -112 c0 -4 -13 -8 -28 -8 -23 0 -32 7 -45 35 -31 64 -21 73
28 25 25 -24 45 -48 45 -52z m1100 78 c0 -18 -16 -29 -30 -21 -13 8 -1 35 16
35 8 0 14 -6 14 -14z m-1190 -72 c0 -15 -35 -28 -49 -19 -11 6 -5 31 13 53 8
11 12 11 23 -4 7 -10 13 -23 13 -30z m315 -29 c36 -37 67 -90 90 -156 12 -33
12 -38 -2 -44 -9 -3 -20 0 -24 7 -32 58 -59 90 -110 133 l-60 50 26 23 c14 12
30 22 35 22 5 0 25 -16 45 -35z m-200 -19 c19 -14 19 -15 -5 -35 l-25 -20 -17
20 c-10 12 -18 27 -18 35 0 18 41 18 65 0z m-74 -37 l21 -41 -28 -29 c-15 -16
-30 -29 -34 -29 -15 0 -40 62 -40 99 0 39 2 41 30 41 25 0 33 -7 51 -41z
m-110 -12 c4 -28 2 -37 -8 -37 -12 0 -50 16 -61 25 -2 2 4 15 14 30 23 36 47
28 55 -18z m322 -18 c36 -28 74 -68 86 -90 l22 -38 -30 -16 c-46 -23 -59 -19
-83 30 -14 29 -29 45 -40 45 -22 0 -22 -9 -3 -34 19 -25 19 -36 0 -36 -14 0
-75 118 -75 145 0 12 37 43 52 44 4 1 36 -22 71 -50z m1282 -104 c9 -44 21
-93 26 -109 22 -73 -31 -29 -72 59 -20 43 -26 115 -9 115 6 0 10 11 10 23 0
13 3 27 7 31 9 8 13 -7 38 -119z m-1669 77 c13 -9 27 -62 16 -62 -7 0 -42 52
-42 64 0 8 13 7 26 -2z m270 -48 c14 -31 24 -57 22 -59 -2 -1 -28 1 -58 4 -50
5 -55 8 -58 33 -2 18 5 34 25 52 15 14 31 26 36 26 4 0 19 -25 33 -56z m-195
11 c-1 -15 -24 -12 -29 3 -3 9 2 13 12 10 10 -1 17 -7 17 -13z m-104 -31 c-9
-9 -28 6 -21 18 4 6 10 6 17 -1 6 -6 8 -13 4 -17z m-221 -19 c-7 -18 -26 -20
-26 -2 0 18 24 41 28 27 2 -6 1 -17 -2 -25z m57 -16 c-10 -17 -24 -35 -30 -41
-23 -19 -15 34 8 59 30 31 43 19 22 -18z m297 21 c0 -6 -7 -13 -15 -16 -20 -8
-48 3 -40 16 8 13 55 13 55 0z m50 -5 c0 -8 -7 -15 -16 -15 -14 0 -14 3 -4 15
7 8 14 15 16 15 2 0 4 -7 4 -15z m-185 -43 c-8 -9 -35 20 -28 31 4 6 11 3 19
-8 8 -10 12 -21 9 -23z m79 -24 c-16 -25 -54 8 -54 48 0 14 6 12 30 -11 16
-15 27 -32 24 -37z m113 16 c3 -8 1 -20 -4 -25 -12 -12 -48 14 -39 29 10 17
36 15 43 -4z m73 -29 c0 -29 -12 -32 -34 -9 -29 28 -17 61 15 43 11 -5 19 -21
19 -34z m-510 5 c0 -20 -5 -30 -15 -30 -18 0 -20 31 -3 48 17 17 18 16 18 -18z
m580 11 c0 -10 -9 -21 -20 -24 -11 -3 -20 -1 -20 3 0 5 -3 15 -6 24 -5 12 0
16 20 16 19 0 26 -5 26 -19z m65 0 c3 -6 -4 -15 -15 -21 -17 -9 -20 -8 -20 10
0 20 24 28 35 11z m1462 -44 c8 -5 32 -45 54 -90 28 -59 36 -84 28 -93 -7 -9
-7 -19 0 -32 5 -10 7 -28 4 -40 -4 -16 9 -41 46 -91 l51 -68 0 -88 c0 -80 -1
-86 -17 -74 -23 20 -83 148 -83 179 0 15 -10 58 -23 96 -18 55 -21 76 -13 106
11 45 -7 98 -35 98 -34 0 -71 85 -54 127 6 17 7 16 17 -2 6 -11 18 -24 25 -28z
m-1760 1 c-3 -8 -6 -5 -6 6 -1 11 2 17 5 13 3 -3 4 -12 1 -19z m48 3 c3 -5 1
-12 -5 -16 -5 -3 -10 1 -10 9 0 18 6 21 15 7z m138 -47 c-24 -18 -43 -18 -43
0 0 15 26 25 48 18 9 -3 8 -8 -5 -18z m-573 -17 c0 -12 -9 -30 -20 -40 -11 -9
-20 -28 -20 -42 0 -20 -5 -25 -26 -25 -20 0 -25 4 -20 16 3 9 6 27 6 40 0 26
43 74 66 74 8 0 14 -10 14 -23z m498 10 c7 -8 7 -18 2 -27 -7 -12 -12 -11 -29
4 -12 11 -21 23 -21 28 0 13 36 9 48 -5z m-70 -42 c-3 -3 -13 7 -23 22 l-17
28 23 -22 c12 -12 20 -25 17 -28z m1643 -22 c5 -26 13 -49 19 -51 5 -2 14 -18
20 -37 9 -27 8 -40 -5 -64 -26 -51 -46 -37 -64 47 -12 59 -15 155 -4 166 12
12 25 -11 34 -61z m-61 1 c0 -21 -4 -33 -10 -29 -17 10 -11 65 7 65 2 0 3 -16
3 -36z m-1450 16 c0 -5 -4 -10 -10 -10 -5 0 -10 5 -10 10 0 6 5 10 10 10 6 0
10 -4 10 -10z m1569 -40 c0 -11 -3 -10 -14 4 -8 11 -15 27 -15 35 0 11 4 10
15 -5 8 -10 14 -26 14 -34z m-1639 14 c0 -2 -7 -4 -15 -4 -8 0 -15 4 -15 10 0
5 7 7 15 4 8 -4 15 -8 15 -10z m1676 -82 c-4 -3 -11 -1 -17 5 -7 7 -6 19 3 39
l13 29 3 -34 c2 -18 1 -36 -2 -39z m-1661 40 c-3 -3 -11 0 -18 7 -9 10 -8 11
6 5 10 -3 15 -9 12 -12z m-642 -54 c-25 -28 -37 -6 -16 30 17 30 18 30 26 10
5 -14 2 -27 -10 -40z m128 -1 c-8 -8 -11 -5 -11 9 0 27 14 41 18 19 2 -9 -1
-22 -7 -28z m2019 17 c0 -8 -4 -14 -10 -14 -5 0 -10 9 -10 21 0 11 5 17 10 14
6 -3 10 -13 10 -21z m-1860 -4 c0 -14 -29 -32 -40 -25 -6 4 -17 1 -25 -5 -10
-8 -15 -9 -15 -2 0 17 50 51 66 45 8 -3 14 -9 14 -13z m-201 -26 c3 -16 1 -17
-13 -5 -19 16 -21 34 -3 29 6 -3 14 -13 16 -24z m-52 -30 c3 -8 1 -20 -6 -27
-6 -6 -11 -19 -11 -29 0 -9 -8 -22 -19 -27 -16 -9 -20 -6 -24 17 -3 15 -1 29
4 31 6 2 14 14 19 27 11 27 28 31 37 8z m2413 -41 c0 -18 -6 -16 -29 8 -11 12
-17 28 -14 36 5 13 10 11 24 -8 10 -13 19 -30 19 -36z m-270 -29 c0 -13 -4
-24 -10 -24 -5 0 -10 -10 -10 -22 0 -47 -19 0 -25 62 l-6 65 25 -28 c14 -15
26 -39 26 -53z m-1936 57 c3 -4 -6 -19 -19 -31 -18 -17 -28 -21 -36 -13 -8 8
-6 17 8 31 19 22 39 27 47 13z m1310 -49 c25 -92 24 -95 -30 -72 -26 11 -68
20 -97 20 -81 0 -157 12 -157 24 0 15 182 74 261 85 4 1 14 -25 23 -57z
m-1044 34 c0 -20 -26 -40 -35 -26 -10 16 2 40 20 40 8 0 15 -6 15 -14z m-394
-62 c-25 -18 -35 -18 -43 1 -3 9 2 22 13 30 16 12 21 12 34 -1 13 -14 13 -17
-4 -30z m2216 13 c3 -13 2 -32 -2 -42 -5 -14 -9 -9 -17 23 -9 33 -8 42 2 42 7
0 15 -10 17 -23z m-421 -29 c6 -13 24 -33 40 -46 16 -13 29 -31 29 -41 0 -9 5
-22 11 -28 6 -6 8 -16 4 -23 -10 -16 -55 27 -55 52 0 11 -7 18 -20 18 -13 0
-22 9 -26 28 -3 15 -8 35 -11 45 -6 25 14 21 28 -5z m-71 -55 c7 -32 14 -63
17 -69 2 -7 -5 -17 -16 -24 -20 -10 -21 -9 -21 70 0 44 2 80 4 80 3 0 10 -26
16 -57z m196 -28 c14 -37 23 -69 21 -72 -2 -2 -18 33 -35 78 -17 45 -27 78
-21 72 6 -6 22 -41 35 -78z m244 55 c0 -10 -4 -21 -9 -25 -12 -7 -25 31 -16
45 9 15 25 2 25 -20z m-2170 -19 c-1 -5 -74 -61 -92 -69 -18 -8 -12 36 9 59
18 19 30 24 53 21 17 -2 30 -7 30 -11z m1680 -30 c0 -31 -5 -53 -15 -61 -8 -7
-15 -22 -15 -34 -1 -21 -1 -21 -15 -2 -19 26 -19 70 0 86 8 7 15 23 15 36 0
15 6 24 15 24 11 0 15 -12 15 -49z m447 3 c-12 -12 -37 5 -30 21 5 15 7 15 21
1 9 -9 13 -18 9 -22z m-123 -10 c9 -8 16 -25 16 -36 0 -12 6 -29 14 -37 19
-21 31 -71 18 -71 -5 0 -15 14 -21 30 -5 17 -15 30 -21 30 -11 0 -22 24 -34
73 -7 30 4 35 28 11z m446 -32 c0 -33 -16 -18 -26 23 -7 27 -6 29 9 16 10 -7
17 -25 17 -39z m-201 7 c13 -39 14 -59 2 -59 -9 0 -31 53 -31 76 0 25 18 14
29 -17z m-161 -1 c8 -8 8 -17 1 -30 -13 -24 -29 -14 -29 18 0 26 9 31 28 12z
m112 -43 c13 -39 10 -81 -5 -79 -13 2 -57 112 -50 124 11 18 43 -8 55 -45z
m-2070 -25 c0 -10 -10 -20 -22 -23 -29 -8 -31 -5 -17 26 13 28 39 26 39 -3z
m2006 -31 c6 -42 -10 -73 -26 -49 -18 28 -8 112 12 92 5 -5 11 -24 14 -43z
m-368 9 c-2 -17 -9 -22 -23 -20 -26 5 -29 8 -22 27 4 8 16 15 27 15 16 0 21
-5 18 -22z m667 -8 c8 -25 -1 -41 -20 -33 -23 8 -18 53 6 53 4 0 10 -9 14 -20z
m75 -30 c23 -45 24 -50 9 -50 -5 0 -17 16 -25 35 -26 64 -15 76 16 15z m-490
-16 c0 -6 7 -17 15 -24 8 -7 15 -21 15 -32 0 -33 -38 -3 -50 40 -15 54 -13 72
5 48 8 -11 15 -25 15 -32z m-1916 11 c-6 -16 -44 -21 -44 -7 0 14 12 22 31 22
12 0 16 -5 13 -15z m2194 -7 c14 -14 16 -28 2 -28 -5 0 -14 9 -20 20 -12 22
-1 27 18 8z m-528 -23 c0 -8 -4 -15 -9 -15 -13 0 -22 16 -14 24 11 11 23 6 23
-9z m636 -22 c-10 -10 -19 5 -10 18 6 11 8 11 12 0 2 -7 1 -15 -2 -18z m77
-14 c5 -20 -9 -25 -31 -11 -16 11 -5 42 13 36 7 -3 15 -14 18 -25z m-2407 -16
c-10 -10 -19 5 -10 18 6 11 8 11 12 0 2 -7 1 -15 -2 -18z m2121 -20 c-9 -14
-67 -3 -67 13 0 7 8 17 18 23 13 7 22 5 36 -9 10 -10 16 -22 13 -27z m349 -4
c3 -6 2 -15 -4 -21 -7 -7 -14 -3 -21 11 -10 17 -9 21 3 21 8 0 18 -5 22 -11z
m-58 -22 c13 -10 17 -57 4 -57 -10 0 -52 56 -52 69 0 11 27 4 48 -12z m-2408
-13 c0 -21 -18 -54 -30 -54 -14 0 -12 26 2 50 15 24 28 26 28 4z m2376 -48
c21 -33 15 -71 -11 -71 -17 0 -20 8 -23 48 -3 52 9 61 34 23z"/>
<path d="M1740 4566 c0 -7 -3 -28 -6 -45 -8 -38 12 -42 44 -8 20 21 21 25 6
45 -17 24 -44 30 -44 8z"/>
<path d="M1895 4467 c0 -36 3 -42 22 -45 16 -2 26 4 34 21 14 32 -3 67 -34 67
-19 0 -22 -5 -22 -43z"/>
<path d="M1720 4390 c0 -6 7 -10 15 -10 8 0 15 2 15 4 0 2 -7 6 -15 10 -8 3
-15 1 -15 -4z"/>
<path d="M2150 1920 c-1 -14 -7 -92 -14 -175 l-12 -150 30 -67 c16 -38 34 -68
39 -68 5 0 22 9 38 21 39 27 38 63 -5 220 -51 183 -74 249 -76 219z"/>
</g>
</svg>
