<?xml version="1.0" standalone="no"?>
<!DOCTYPE svg PUBLIC "-//W3C//DTD SVG 20010904//EN"
 "http://www.w3.org/TR/2001/REC-SVG-20010904/DTD/svg10.dtd">
<svg version="1.0" xmlns="http://www.w3.org/2000/svg"
 width="473.000000pt" height="313.000000pt" viewBox="0 0 473.000000 313.000000"
 preserveAspectRatio="xMidYMid meet">

<g transform="translate(0.000000,313.000000) scale(0.100000,-0.100000)"
fill="#000000" stroke="none">
<path d="M490 2129 c0 -643 -3 -995 -9 -1003 -8 -9 227 -108 926 -390 l937
-377 968 388 968 388 0 993 c0 874 -2 992 -15 992 -13 0 -15 -118 -17 -982
l-3 -982 -940 -378 c-517 -207 -950 -378 -962 -378 -29 0 -1826 725 -1831 739
-2 6 5 11 15 11 10 0 342 -131 738 -290 396 -160 800 -323 898 -362 l178 -72
937 376 937 376 3 971 2 971 -35 0 -35 0 0 -944 0 -944 -902 -361 -903 -362
-882 353 -883 353 0 953 0 952 -45 0 -45 0 0 -991z"/>
<path d="M590 2172 l0 -948 876 -351 875 -352 897 359 897 359 3 941 2 941
-327 -2 c-208 0 -333 -5 -340 -11 -9 -7 -13 -7 -13 1 0 8 -63 11 -216 11 -195
0 -218 -2 -230 -17 -13 -17 -13 -17 -14 0 0 16 -24 17 -370 17 -281 0 -370 -3
-370 -12 0 -9 -3 -9 -12 0 -15 15 -208 17 -208 2 0 -5 -5 -10 -11 -10 -5 0 -7
5 -4 10 4 7 -62 10 -189 10 -168 0 -196 -2 -196 -15 0 -8 -5 -15 -10 -15 -6 0
-13 7 -16 15 -5 12 -28 15 -123 15 -75 0 -121 -4 -129 -12 -8 -8 -15 -8 -26 1
-11 9 -15 9 -19 -1 -4 -10 -8 -10 -14 -1 -11 15 -160 15 -185 0 -14 -9 -23 -9
-38 1 -14 9 -85 12 -255 12 l-235 0 0 -948z m979 929 c7 -5 9 -11 5 -14 -5 -3
-15 1 -22 9 -14 16 -5 18 17 5z m1831 -12 c0 -5 -4 -9 -10 -9 -5 0 -10 7 -10
16 0 8 5 12 10 9 6 -3 10 -10 10 -16z m-1870 -30 c0 -6 -4 -7 -10 -4 -5 3 -10
11 -10 16 0 6 5 7 10 4 6 -3 10 -11 10 -16z m-279 -276 c82 -52 86 -149 8
-216 -39 -34 -39 -35 -16 -41 14 -3 41 -24 61 -46 31 -35 36 -47 36 -89 0 -39
-6 -56 -26 -81 -48 -56 -74 -64 -239 -68 l-150 -4 28 29 27 29 0 235 c0 223
-1 237 -20 254 -11 10 -20 21 -20 24 0 3 62 4 137 1 120 -4 143 -8 174 -27z
m436 5 c65 -36 95 -106 73 -172 -10 -32 -39 -63 -83 -91 -14 -9 -7 -26 48
-124 34 -62 68 -118 74 -124 23 -23 46 26 132 274 48 138 89 253 91 254 2 2
15 6 29 10 l27 7 87 -262 c56 -169 96 -271 112 -290 l25 -30 -98 0 -98 0 26
28 26 27 -18 50 -17 50 -94 3 -95 3 -17 -53 c-16 -50 -16 -53 3 -73 11 -12 20
-24 20 -28 0 -4 -51 -7 -114 -7 l-115 0 -68 130 -68 130 -37 0 -38 0 0 -103
c0 -91 2 -106 20 -122 11 -10 20 -22 20 -27 0 -4 -41 -8 -92 -8 l-92 0 27 28
27 28 0 235 c0 223 -1 237 -20 254 -11 10 -20 21 -20 24 0 3 64 4 142 1 109
-4 151 -9 175 -22z m693 26 c0 -3 -11 -15 -24 -27 l-24 -22 54 -184 c30 -101
55 -185 57 -187 1 -2 28 81 59 184 57 186 57 187 37 208 -10 11 -19 22 -19 25
0 7 140 10 140 2 0 -4 -9 -16 -20 -28 -11 -12 -56 -132 -104 -280 -83 -258
-84 -260 -112 -260 -28 0 -28 1 -107 255 -56 182 -86 262 -103 281 -13 14 -24
27 -24 30 0 6 190 9 190 3z m658 -57 c2 -31 0 -57 -3 -57 -4 0 -18 14 -32 30
-24 29 -28 30 -104 30 l-79 0 -2 -75 c-1 -41 -2 -83 -2 -92 -1 -15 9 -19 56
-21 52 -3 58 -1 74 23 9 14 20 25 25 25 5 0 9 -31 9 -70 0 -38 -4 -70 -8 -70
-5 0 -17 9 -27 20 -14 16 -31 20 -77 20 l-58 0 0 -115 0 -115 78 0 c74 0 80 2
107 30 16 17 33 30 37 30 5 0 8 -24 6 -52 l-3 -53 -179 -3 -178 -2 27 32 27
32 -6 230 c-6 211 -8 232 -26 251 -11 12 -20 23 -20 26 0 2 80 4 178 3 l177
-1 3 -56z m222 55 c0 -3 -9 -15 -20 -27 -18 -19 -19 -37 -20 -255 l-1 -235 65
-3 c62 -3 66 -1 92 28 15 16 31 30 36 30 4 0 8 -25 8 -55 l0 -55 -172 0 -172
0 27 28 27 28 0 233 0 232 -25 23 c-14 13 -25 25 -25 27 0 2 41 5 90 6 50 1
90 -1 90 -5z m270 0 c0 -3 -9 -15 -20 -27 l-20 -22 51 -94 c29 -52 53 -95 54
-97 2 -2 26 41 54 94 50 98 50 99 31 119 -11 12 -20 23 -20 26 0 6 140 8 140
1 0 -3 -9 -15 -19 -26 -10 -12 -51 -79 -90 -150 l-71 -129 0 -107 c0 -94 2
-109 20 -125 11 -10 20 -22 20 -27 0 -4 -38 -8 -85 -8 -47 0 -85 4 -85 8 0 5
9 17 20 27 18 16 20 31 20 126 l0 109 -67 117 c-36 65 -79 132 -95 148 -15 17
-28 33 -28 35 0 7 190 9 190 2z m318 -634 c3 -17 -72 -18 -1472 -18 -1508 0
-1503 0 -1469 33 3 4 666 6 1472 5 1387 -3 1466 -4 1469 -20z m-2655 -94 c20
-4 61 -21 90 -38 43 -26 58 -43 87 -100 31 -61 35 -77 34 -145 0 -91 -27 -160
-82 -214 -60 -59 -99 -70 -257 -75 l-140 -4 28 29 27 29 0 234 0 234 -27 28
-27 28 115 0 c63 0 131 -3 152 -6z m587 -51 l0 -57 -33 32 c-31 30 -37 32
-110 32 l-77 0 0 -95 0 -95 57 0 c44 0 62 5 80 22 l23 21 0 -73 0 -74 -28 27
c-23 22 -37 27 -80 27 l-52 0 0 -120 0 -120 77 0 c73 0 79 2 110 32 l33 32 0
-57 0 -57 -175 0 c-96 0 -175 4 -175 8 0 5 9 17 20 27 19 17 20 31 20 255 0
224 -1 238 -20 255 -11 10 -20 22 -20 27 0 4 79 8 175 8 l175 0 0 -57z m400 0
l0 -57 -33 32 c-31 30 -37 32 -110 32 l-77 0 0 -95 0 -95 57 0 c44 0 62 5 80
22 l23 21 0 -73 0 -74 -28 27 c-23 22 -37 27 -80 27 l-52 0 0 -118 c0 -106 2
-121 20 -137 11 -10 20 -22 20 -27 0 -4 -38 -8 -85 -8 -47 0 -85 4 -85 8 0 5
9 17 20 27 19 17 20 31 20 255 0 224 -1 238 -20 255 -11 10 -20 22 -20 27 0 4
79 8 175 8 l175 0 0 -57z m311 -207 c50 -147 97 -268 108 -280 12 -12 21 -25
21 -29 0 -4 -40 -7 -90 -7 -49 0 -90 3 -90 7 0 4 10 17 21 29 22 23 22 23 3
75 l-19 52 -90 -2 c-49 -1 -93 -5 -96 -9 -4 -4 -13 -28 -22 -53 -15 -46 -15
-47 11 -73 l27 -26 -78 0 c-45 0 -77 4 -77 10 0 6 4 10 10 10 19 0 41 51 125
290 47 135 87 251 90 258 3 8 16 12 31 10 25 -3 31 -17 115 -262z m269 256 c0
-5 -9 -17 -21 -27 -19 -18 -20 -28 -17 -228 l3 -209 33 -29 c36 -32 90 -39
137 -17 49 22 55 49 55 266 0 186 -1 200 -20 217 -11 10 -20 22 -20 27 0 4 32
8 70 8 39 0 70 -4 70 -8 0 -5 -9 -17 -20 -27 -19 -17 -20 -31 -20 -217 0 -163
-3 -205 -16 -231 -27 -53 -55 -77 -111 -93 -98 -28 -186 3 -230 81 -21 38 -23
51 -23 241 0 188 -1 202 -20 219 -11 10 -20 22 -20 27 0 4 38 8 85 8 47 0 85
-4 85 -8z m492 -15 c-20 -22 -21 -32 -22 -262 l-1 -240 63 -3 c59 -3 65 -1 93
28 16 16 33 30 37 30 5 0 8 -24 6 -52 l-3 -53 -170 -3 -169 -3 27 29 27 28 0
234 0 234 -27 28 -27 28 94 0 93 0 -21 -23z m538 -34 l0 -57 -33 32 c-28 27
-41 32 -80 32 l-47 0 0 -237 0 -237 27 -28 27 -28 -92 0 c-51 0 -92 4 -92 8 0
5 9 17 20 27 19 17 20 31 20 257 l0 238 -43 0 c-35 0 -49 -6 -72 -30 -16 -16
-32 -30 -37 -30 -10 0 -11 94 -1 103 3 4 96 7 205 7 l198 0 0 -57z m-17 -450
c-7 -2 -14 -19 -14 -36 l-2 -32 -4 30 c-3 16 -10 33 -16 37 -7 4 2 7 18 7 17
0 24 -3 18 -6z m47 -36 c0 -5 -8 -3 -17 4 -15 13 -16 12 -11 -8 4 -13 2 -23
-3 -23 -11 0 -12 31 -2 56 6 16 7 16 20 -2 7 -10 13 -22 13 -27z m25 8 c0 -19
-3 -35 -6 -35 -9 0 -17 42 -11 58 8 24 17 11 17 -23z m5 -105 c0 -20 -7 -20
-1469 -20 -969 0 -1472 3 -1476 10 -3 6 -3 15 0 20 4 7 507 10 1476 10 1462 0
1469 0 1469 -20z"/>
<path d="M1070 2655 l0 -105 29 0 c74 0 121 42 121 110 0 66 -34 99 -102 100
l-48 0 0 -105z"/>
<path d="M1070 2395 l0 -105 50 0 c28 0 63 6 79 14 48 25 65 91 36 146 -20 40
-43 50 -109 50 l-56 0 0 -105z"/>
<path d="M1500 2655 l0 -105 40 0 c47 0 95 22 110 49 24 45 2 140 -35 155 -9
3 -39 6 -66 6 l-49 0 0 -105z"/>
<path d="M2026 2660 c-3 -8 -19 -53 -36 -99 -16 -47 -30 -91 -30 -98 0 -9 19
-13 70 -13 39 0 70 4 70 9 0 24 -70 214 -74 201z"/>
<path d="M1070 1800 l0 -242 60 4 c72 5 104 26 140 89 22 39 25 55 25 149 0
94 -3 110 -25 149 -36 63 -68 84 -140 89 l-60 4 0 -242z"/>
<path d="M2317 1842 c-20 -59 -37 -110 -37 -114 0 -5 31 -8 69 -8 39 0 72 3
74 8 2 4 -12 55 -32 114 l-36 107 -38 -107z"/>
</g>
</svg>
